<svg width="18" height="18" viewBox="0 0 18 18" fill="none" xmlns="http://www.w3.org/2000/svg">
<g id="icon/outlined/search">
<path id="icon" fill-rule="evenodd" clip-rule="evenodd" d="M7.5 2.8125C4.91117 2.8125 2.8125 4.91117 2.8125 7.5C2.8125 10.0888 4.91117 12.1875 7.5 12.1875C10.0888 12.1875 12.1875 10.0888 12.1875 7.5C12.1875 4.91117 10.0888 2.8125 7.5 2.8125ZM1.6875 7.5C1.6875 4.28984 4.28984 1.6875 7.5 1.6875C10.7102 1.6875 13.3125 4.28984 13.3125 7.5C13.3125 8.90251 12.8158 10.189 11.9886 11.1931L16.1477 15.3523C16.3674 15.5719 16.3674 15.9281 16.1477 16.1477C15.9281 16.3674 15.5719 16.3674 15.3523 16.1477L11.1931 11.9886C10.189 12.8158 8.90251 13.3125 7.5 13.3125C4.28984 13.3125 1.6875 10.7102 1.6875 7.5Z" fill="#817B7B"/>
</g>
</svg>
